<svg width="56" height="56" viewBox="0 0 56 56" fill="none" xmlns="http://www.w3.org/2000/svg">
<g clip-path="url(#clip0)">
<path d="M13.4407 39.759C12.0404 39.759 10.8504 40.249 9.87034 41.2289C8.89062 42.2098 8.40039 43.3995 8.40039 44.7998C8.40039 46.2002 8.89025 47.3899 9.87034 48.3707C10.8508 49.3507 12.0407 49.8407 13.4407 49.8407C14.8175 49.8407 16.0014 49.3507 16.9933 48.3707C17.9848 47.3912 18.4805 46.2002 18.4805 44.7998C18.4805 43.3995 17.9849 42.2106 16.9933 41.2289C16.0013 40.2498 14.8175 39.759 13.4407 39.759Z" fill="#2E294B"/>
<path d="M12.321 29.1197C12.321 27.5797 11.773 26.2618 10.6762 25.1641C9.5795 24.0675 8.26095 23.5193 6.72101 23.5193C5.18094 23.5193 3.86264 24.0676 2.76585 25.1641C1.6693 26.2609 1.12109 27.5792 1.12109 29.1197C1.12109 30.6594 1.66918 31.9771 2.76585 33.0741C3.86264 34.1711 5.18094 34.7195 6.72101 34.7195C8.26095 34.7195 9.5795 34.1711 10.6762 33.0741C11.773 31.9778 12.321 30.6594 12.321 29.1197Z" fill="#2E294B"/>
<path d="M44.8003 16.2404C45.5696 16.2404 46.2299 15.9658 46.7775 15.4177C47.3258 14.8691 47.6005 14.2097 47.6005 13.4399C47.6005 12.6697 47.3258 12.0107 46.7775 11.4625C46.2295 10.914 45.5696 10.6399 44.8003 10.6399C44.03 10.6399 43.3705 10.9144 42.8222 11.4625C42.2742 12.0109 42 12.6697 42 13.4399C42 14.2101 42.2742 14.8691 42.8222 15.4177C43.3705 15.9663 44.03 16.2404 44.8003 16.2404Z" fill="#2E294B"/>
<path d="M13.4414 7.28022C11.7378 7.28022 10.2854 7.88114 9.08365 9.08262C7.88181 10.2841 7.28125 11.7366 7.28125 13.4399C7.28125 15.1437 7.88181 16.5956 9.08365 17.7976C10.2857 18.9995 11.7382 19.6003 13.4414 19.6003C15.1446 19.6003 16.5972 18.9991 17.7986 17.7976C19.0001 16.5956 19.601 15.1433 19.601 13.4399C19.601 11.7366 19.0001 10.2841 17.7986 9.08262C16.5972 7.88114 15.1446 7.28022 13.4414 7.28022Z" fill="#2E294B"/>
<path d="M53.9009 26.7394C53.2478 26.086 52.4545 25.7597 51.5215 25.7597C50.5876 25.7597 49.7944 26.086 49.1412 26.7394C48.4884 27.3928 48.1621 28.1863 48.1621 29.1201C48.1621 30.053 48.4884 30.8476 49.1412 31.4996C49.7947 32.1532 50.5876 32.4795 51.5215 32.4795C52.4545 32.4795 53.2483 32.1532 53.9009 31.4996C54.5545 30.8469 54.8805 30.053 54.8805 29.1201C54.8805 28.1868 54.555 27.3931 53.9009 26.7394Z" fill="#2E294B"/>
<path d="M44.8012 40.8796C43.7272 40.8796 42.8056 41.2643 42.0354 42.0345C41.266 42.8038 40.8809 43.7259 40.8809 44.7999C40.8809 45.8731 41.266 46.7952 42.0354 47.5655C42.8056 48.3356 43.7273 48.7199 44.8012 48.7199C45.8743 48.7199 46.7959 48.3349 47.5662 47.5655C48.3364 46.7953 48.7212 45.8736 48.7212 44.7999C48.7212 43.7259 48.3364 42.8048 47.5662 42.0345C46.7961 41.2642 45.8743 40.8796 44.8012 40.8796Z" fill="#2E294B"/>
<path d="M29.1211 47.0389C27.8844 47.0389 26.8284 47.4772 25.9529 48.3524C25.0783 49.2275 24.6406 50.2829 24.6406 51.5197C24.6406 52.7565 25.0778 53.8119 25.9529 54.687C26.8284 55.5621 27.8839 56.0001 29.1211 56.0001C30.3578 56.0001 31.4133 55.5621 32.2885 54.687C33.1636 53.8119 33.6011 52.7565 33.6011 51.5197C33.6011 50.2829 33.1636 49.2275 32.2885 48.3524C31.4133 47.4772 30.3578 47.0389 29.1211 47.0389Z" fill="#2E294B"/>
<path d="M29.1206 0C27.2542 0 25.6669 0.653023 24.3601 1.95968C23.0537 3.26646 22.4004 4.85348 22.4004 6.72C22.4004 8.58663 23.0534 10.1729 24.3601 11.4798C25.6669 12.7862 27.2539 13.4396 29.1206 13.4396C30.9879 13.4396 32.5742 12.7866 33.8804 11.4798C35.1867 10.1735 35.84 8.58663 35.84 6.72C35.84 4.8536 35.1867 3.26695 33.8804 1.95968C32.5742 0.653391 30.9879 0 29.1206 0Z" fill="#2E294B"/>
</g>
<defs>
<clipPath id="clip0">
<rect width="56" height="56" fill="white"/>
</clipPath>
</defs>
</svg>
